<?xml version="1.0" ?><!DOCTYPE svg  PUBLIC '-//W3C//DTD SVG 1.1//EN'  'http://www.w3.org/Graphics/SVG/1.1/DTD/svg11.dtd'><svg style="enable-background:new 0 0 2000 2000;" version="1.1" viewBox="0 0 2000 2000" xml:space="preserve" xmlns="http://www.w3.org/2000/svg" xmlns:xlink="http://www.w3.org/1999/xlink"><style type="text/css">
	.st0{display:none;}
	.st1{display:inline;}
	.st2{fill:none;stroke:#231F20;stroke-width:2;stroke-miterlimit:10;}
	.st3{fill:#E96F7B;}
	.st4{fill:#F0867E;}
	.st5{fill:#5F6161;}
	.st6{fill:#F2F3F0;}
	.st7{fill:#7A7FBD;}
	.st8{fill:#85AFDC;}
	.st9{fill:#2D0D1B;}
	.st10{fill:#D5D8CB;}
	.st11{fill:#484C4C;}
	.st12{fill:#937CB8;}
	.st13{fill:#7F60A9;}
	.st14{fill:#999999;}
	.st15{fill:#FFFFFF;}
	.st16{fill:#004AF1;}
	.st17{fill:#3EE2D7;}
</style><g><g class="st0" id="Layer_3"><g class="st1"><rect class="st2" height="1000" width="1000" x="500" y="500"/><rect class="st2" height="706.7" width="706.7" x="646.6" y="646.6"/><circle class="st2" cx="1000" cy="1000" r="500"/><circle class="st2" cx="1000" cy="1000" r="348.7"/><line class="st2" x1="500" x2="1500" y1="500" y2="1500"/><line class="st2" x1="1500" x2="500" y1="500" y2="1500"/><line class="st2" x1="1000" x2="1000" y1="497.4" y2="1500"/><line class="st2" x1="1501.3" x2="498.7" y1="998.7" y2="998.7"/></g></g><g class="st0" id="bg"/><g id="object"><g><rect class="st3" height="84.2" width="328.5" x="836.7" y="1085.1"/><path class="st4" d="M1165.2,1111.3v58H862.9v0c0-32,26-58,58-58H1165.2z"/><rect class="st3" height="109" width="195.4" x="903.5" y="1434.6"/><path class="st4" d="M1063.4,1434.6v0.7c0,40.3-32.6,72.9-72.9,72.9h-87v-73.6H1063.4z"/><path class="st3" d="M966.7,1729.6v63.5L735.3,1900c-0.3-7.7-2.2-15.1-5.3-21.7c-3.5-7.5-8.6-14.1-14.8-19.4      c-3.5-3-7.4-5.6-11.6-7.8l5.1-2.3l244.1-112.7L966.7,1729.6z"/><path class="st4" d="M952.8,1736.1v8.6c0,18.8-10.9,35.8-28,43.7L730,1878.3l-8.6,4c-0.4-8.4-2.5-16.3-6.1-23.4      c-1.8-3.6-4-7-6.5-10.1L952.8,1736.1z"/><path class="st5" d="M1273.8,1874.6c0.9-1.6,1.9-3.2,2.9-4.7C1275.7,1871.4,1274.7,1873,1273.8,1874.6z"/><path class="st5" d="M1381.9,1902.5c0,31.8-25.9,57.7-57.7,57.7c-31.8,0-57.7-25.9-57.7-57.7c0-0.7,0-1.4,0.1-2.1      c0.1-3.5,0.5-6.9,1.2-10.1c0.1-0.5,0.2-1,0.4-1.6c0.2-0.6,0.3-1.2,0.5-1.9c0.1-0.5,0.3-0.9,0.4-1.4c1-3.1,2.1-6,3.6-8.9      c0.3-0.6,0.6-1.2,0.9-1.7c0.1-0.1,0.1-0.2,0.2-0.3c0.9-1.6,1.9-3.2,2.9-4.7c0.4-0.6,0.8-1.1,1.2-1.6c0.8-1,1.5-2,2.3-3      c0,0,0.1-0.1,0.1-0.1c0.4-0.5,0.8-1,1.3-1.5c0.4-0.5,0.9-1,1.3-1.4c0.5-0.5,0.9-0.9,1.4-1.4c0.5-0.4,1-0.9,1.4-1.3      c0.5-0.4,1-0.9,1.5-1.3c0.5-0.4,1-0.8,1.5-1.2c0.5-0.4,0.9-0.7,1.4-1.1c0.6-0.5,1.3-0.9,1.9-1.3c0.5-0.3,1-0.7,1.5-1      c0.5-0.3,1-0.6,1.5-0.9c0.3-0.2,0.6-0.4,1-0.6c0.6-0.3,1.1-0.6,1.7-0.9c7.9-4.1,16.9-6.5,26.5-6.5      C1356,1844.9,1381.9,1870.7,1381.9,1902.5z"/><path class="st3" d="M1297.8,1851.3c-0.6,0.3-1.1,0.6-1.7,0.9c-0.3,0.2-0.6,0.4-1,0.6c-0.5,0.3-1,0.6-1.5,0.9      c-0.5,0.3-1,0.6-1.5,1c-0.7,0.4-1.3,0.9-1.9,1.3c-0.5,0.3-1,0.7-1.4,1.1c-0.5,0.4-1,0.8-1.5,1.2c-0.5,0.4-1,0.8-1.5,1.3      c-0.5,0.4-1,0.9-1.4,1.3c-0.5,0.5-0.9,0.9-1.4,1.4c-0.5,0.5-0.9,0.9-1.3,1.4c-0.4,0.5-0.9,1-1.3,1.5c0,0-0.1,0.1-0.1,0.1      c-0.8,1-1.6,1.9-2.3,3c-0.4,0.5-0.8,1.1-1.2,1.6c-1,1.5-2,3.1-2.9,4.7c0,0.1-0.1,0.2-0.2,0.3c-0.3,0.6-0.6,1.2-0.9,1.7      c-1.4,2.8-2.6,5.8-3.6,8.9c-0.2,0.5-0.3,0.9-0.4,1.4c-0.2,0.6-0.3,1.2-0.5,1.9c-0.1,0.5-0.2,1-0.4,1.6      c-0.7,3.3-1.1,6.7-1.2,10.1l-231.8-107V1730l18.2,8.4l242.7,112.1L1297.8,1851.3z"/><path class="st4" d="M1295.8,1850.4c-0.8,1.1-1.5,2.2-2.2,3.3c-0.5,0.3-1,0.6-1.5,1c-0.7,0.4-1.3,0.9-1.9,1.3      c-0.5,0.3-1,0.7-1.4,1.1c-0.5,0.4-1,0.8-1.5,1.2c-0.5,0.4-1,0.8-1.5,1.3c-0.5,0.4-1,0.9-1.4,1.3c-0.5,0.5-0.9,0.9-1.4,1.4      c-0.5,0.5-0.9,0.9-1.3,1.4c-0.4,0.5-0.9,1-1.3,1.5c0,0-0.1,0.1-0.1,0.1c-0.8,1-1.6,1.9-2.3,3c-0.4,0.5-0.8,1.1-1.2,1.6      c-1,1.5-2,3.1-2.9,4.7c0,0.1-0.1,0.2-0.2,0.3c-0.3,0.6-0.6,1.2-0.9,1.7l-186.2-85.9c-20.4-9.4-33.5-29.8-33.5-52.3      L1295.8,1850.4z"/><path class="st4" d="M1034.9,1543.6v312.3c-9.5-7-21.2-11.1-33.9-11.1c-12.8,0-24.7,4.2-34.3,11.3v-312.6H1034.9z"/><path class="st5" d="M735.3,1902.5c0,31.8-25.8,57.7-57.7,57.7c-31.8,0-57.7-25.9-57.7-57.7c0-31.8,25.9-57.7,57.7-57.7      c9.3,0,18.2,2.2,25.9,6.2c18.1,9.1,30.7,27.5,31.7,48.9v0C735.3,1900.8,735.3,1901.7,735.3,1902.5z"/><path class="st5" d="M1058.6,1902.5c0,31.8-25.9,57.7-57.7,57.7s-57.7-25.9-57.7-57.7c0-19,9.2-35.8,23.4-46.4      c9.6-7.1,21.5-11.3,34.3-11.3c12.7,0,24.4,4.1,33.9,11.1C1049.3,1866.4,1058.6,1883.4,1058.6,1902.5z"/><path class="st6" d="M519.2,1238.7c-10.2,18.8-15.9,40.3-15.9,63.1c0,6.9,0.5,13.6,1.5,20.2c-57.1-28.8-96.3-87.9-96.3-156.1      V938h77.6v227.9C486.2,1194.8,499,1220.8,519.2,1238.7z"/><path class="st6" d="M1593,938v227.9c0.2,68.2-38.9,127.3-95.9,156.1c1-6.6,1.5-13.3,1.5-20.1c0-22.9-5.8-44.5-16-63.3      c0,0,0,0,0,0c20.1-17.8,32.8-43.8,32.8-72.6V938H1593z"/><path class="st3" d="M1759,847.1c-9.7-24.8-33.7-42.3-61.9-42.3h-233.8c-10.1,0-18.2,8-18.2,18.2v96.8      c0,10.1,8.4,18.2,18.2,18.2h233.8c18.3,0,34.9-7.4,47-19.5c12-12.1,19.4-28.7,19.4-47.3C1763.5,862.7,1761.9,854.6,1759,847.1z       M538.6,805.2H304.8c-18.3,0-34.9,7.4-47,19.4c-12,12-19.4,28.6-19.4,47c0,28.2,17.5,52.2,42.3,61.9c7.5,2.9,15.6,4.5,24.1,4.5      h233.8c10.1,0,18.2-8,18.2-17.8v-96.8C556.8,813.2,548.4,805.2,538.6,805.2z"/><path class="st4" d="M1759,847.1c-7.5-2.9-15.6-4.5-24.2-4.5h-233.8c-10.2,0-18.2,8-18.2,18.2V938h214.2      c18.3,0,34.9-7.4,47-19.5c12-12.1,19.4-28.7,19.4-47.3C1763.5,862.7,1761.9,854.6,1759,847.1z M342.5,842.9      c-18.3,0-34.9,7.4-47,19.4c-12,12-19.4,28.6-19.4,47c0,8.5,1.6,16.7,4.5,24.1c7.5,2.9,15.6,4.5,24.1,4.5h233.8      c10.1,0,18.2-8,18.2-17.8v-77.2H342.5z"/><path class="st7" d="M1391,937.6L1356,266.2c-2.6-48.3-19.4-92.6-46.4-128.9c-43.4-58.5-113-96.1-190.9-96.1H883.9      c-126.5,0-230.7,98.9-237.3,225.1l-34.9,671.4c-2.8,54.1,25.3,102.4,68.6,128c20.8,12.3,45.1,19.4,71.2,19.4h499.1      C1330.9,1085.1,1394.8,1017.6,1391,937.6z M836.7,1169v0.3h328.5v-0.3H836.7z"/><path class="st8" d="M1391,937.6L1356,266.2c-2.6-48.3-19.4-92.6-46.4-128.9c-39.7-29.5-88.7-46.9-141.6-46.9H933.1      c-126.5,0-230.7,98.9-237.3,225.1l-34.9,671.4c-1.5,28.7,5.7,55.8,19.3,78.8c20.8,12.3,45.1,19.4,71.2,19.4h499.1      C1330.9,1085.1,1394.8,1017.6,1391,937.6z M886,1218.2v0.3h328.5v-0.3H886z"/><path class="st7" d="M1498.6,1301.8c0,6.8-0.5,13.5-1.5,20.1c-9.7,63.8-64.7,112.7-131.3,112.7H636.1      c-27.7,0-53.3-8.4-74.6-22.9c-6.9-4.7-13.4-10.1-19.3-16c-19.5-19.5-33-45.1-37.3-73.7c-1-6.6-1.5-13.3-1.5-20.2      c0-22.8,5.8-44.3,15.9-63.1c22.4-41.5,66.3-69.7,116.9-69.7h200.6v0.3h328.5v-0.3h200.6c36.7,0,69.9,14.9,93.9,38.9      c5.9,5.9,11.3,12.4,16,19.3c2.5,3.6,4.8,7.4,6.9,11.3v0C1492.8,1257.3,1498.6,1278.8,1498.6,1301.8z"/><path class="st8" d="M1498.6,1301.8c0,6.8-0.5,13.5-1.5,20.1c-9.7,63.8-64.7,112.7-131.3,112.7H636.1      c-27.7,0-53.3-8.4-74.6-22.9c-10.8-16-18.3-34.4-21.3-54.4c-1-6.6-1.5-13.3-1.5-20.2c0-22.8,5.8-44.3,15.9-63.1      c22.4-41.5,66.3-69.7,116.9-69.7h200.6v0.3h328.5v-0.3h200.6c27.7,0,53.3,8.4,74.6,22.9c2.5,3.6,4.8,7.4,6.9,11.3v0      C1492.8,1257.3,1498.6,1278.8,1498.6,1301.8z"/><g><rect class="st9" height="84.2" width="328.5" x="835.8" y="1084.4"/></g><g><path class="st9" d="M1097.9,1558.3H902.5c-8.5,0-15.4-6.9-15.4-15.4v-109c0-8.5,6.9-15.4,15.4-15.4h195.4       c8.5,0,15.4,6.9,15.4,15.4v109C1113.2,1551.4,1106.3,1558.3,1097.9,1558.3z M917.8,1527.6h164.7v-78.3H917.8V1527.6z"/></g><g><path class="st9" d="M965.7,1728.9v63.5l-231.4,106.8c-0.3-7.7-2.2-15.1-5.3-21.7c-3.5-7.5-8.6-14.1-14.8-19.4       c-3.5-3-7.4-5.6-11.6-7.8l5.1-2.3l244.1-112.7L965.7,1728.9z"/></g><g><path class="st9" d="M1272.8,1889.3c-2.5,0-5.1-0.6-7.5-2c-7.4-4.1-10-13.4-6-20.8c1.1-2.1,2.4-4.1,3.8-6.1       c4.8-6.9,14.4-8.7,21.3-3.9c7,4.8,8.7,14.3,4,21.3c-0.8,1.1-1.5,2.4-2.2,3.6C1283.4,1886.4,1278.2,1889.3,1272.8,1889.3z"/></g><g><path class="st9" d="M1323.3,1974.9c-40.3,0-73-32.8-73-73c0-0.9,0-1.8,0.1-2.8c0.2-4.3,0.7-8.6,1.6-12.7       c0.2-0.8,0.3-1.5,0.5-2.2l0-0.1c0.2-0.7,0.4-1.4,0.5-2.1c0.2-0.6,0.4-1.3,0.6-1.9c1.2-3.9,2.7-7.6,4.5-11.1       c0.4-0.8,0.7-1.4,1.1-2c0,0,0.1-0.1,0.1-0.1c0.1-0.2,0.2-0.3,0.2-0.5c1.1-2,2.4-4,3.6-5.8c0.5-0.8,1-1.4,1.5-2.1       c1-1.3,1.9-2.5,2.9-3.7c0.1-0.2,0.3-0.3,0.4-0.5c0.5-0.5,0.9-1,1.4-1.6c0.5-0.6,1.1-1.2,1.7-1.8c0.4-0.4,0.7-0.8,1.1-1.1       l0.4-0.4c0.2-0.2,0.3-0.3,0.5-0.4l0.4-0.4c0.4-0.4,0.8-0.7,1.2-1.1c0.6-0.5,1.2-1,1.8-1.5c0.5-0.5,1-0.8,1.5-1.2l0.4-0.3       c0.8-0.6,1.4-1.1,2.1-1.6c0.7-0.5,1.5-1.1,2.2-1.6c0.7-0.5,1.4-0.9,2.1-1.3c0.5-0.3,1.1-0.7,1.8-1.1l1-0.6       c0.1-0.1,0.2-0.1,0.3-0.2c0.7-0.4,1.4-0.8,2.1-1.1c10.2-5.3,21.8-8.2,33.5-8.2c40.3,0,73,32.8,73,73       C1396.3,1942.1,1363.5,1974.9,1323.3,1974.9z M1286.1,1881.7c-0.2,0.4-0.5,0.9-0.7,1.3c-1,1.9-1.9,4.1-2.6,6.4       c0,0.1-0.1,0.2-0.1,0.3c-0.1,0.2-0.1,0.4-0.2,0.7c-0.1,0.4-0.2,0.8-0.3,1.2l-0.1,0.3c-0.1,0.5-0.2,0.8-0.3,1.2       c-0.5,2.3-0.8,4.8-0.9,7.3c0,0.1,0,0.2,0,0.3c0,0.4,0,0.8,0,1.2c0,23.3,19,42.3,42.3,42.3c23.3,0,42.3-19,42.3-42.3       c0-23.3-19-42.3-42.3-42.3c-6.9,0-13.4,1.6-19.3,4.7c-0.1,0-0.2,0.1-0.2,0.1c-0.3,0.2-0.7,0.4-1,0.5l-0.7,0.4       c-0.4,0.2-0.8,0.5-1.2,0.7c-0.3,0.2-0.5,0.3-0.7,0.4c-0.2,0.1-0.4,0.3-0.6,0.4c-0.4,0.3-0.8,0.6-1.3,0.9       c-0.4,0.3-0.6,0.5-0.9,0.7l-0.4,0.4c-0.2,0.2-0.5,0.4-0.7,0.6c-0.4,0.3-0.7,0.6-1,0.9c-0.1,0.1-0.2,0.1-0.2,0.2       c-0.2,0.2-0.4,0.4-0.6,0.6l-0.6,0.6c-0.2,0.2-0.4,0.4-0.6,0.6c-0.1,0.1-0.1,0.2-0.2,0.2c-0.3,0.3-0.6,0.6-0.9,1       c-0.3,0.3-0.6,0.7-0.9,1c-0.1,0.1-0.2,0.2-0.3,0.4c-0.5,0.7-1.1,1.3-1.6,2c-0.2,0.3-0.5,0.7-0.8,1.1c-0.7,1-1.4,2.1-2,3.2       C1286.3,1881.3,1286.2,1881.5,1286.1,1881.7z M1258.6,1868.2C1258.6,1868.2,1258.6,1868.2,1258.6,1868.2       C1258.6,1868.2,1258.6,1868.2,1258.6,1868.2z"/></g><g><path class="st9" d="M1296.8,1850.6c-0.6,0.3-1.1,0.6-1.7,0.9c-0.3,0.2-0.6,0.4-1,0.6c-0.5,0.3-1,0.6-1.5,0.9       c-0.5,0.3-1,0.6-1.5,1c-0.7,0.4-1.3,0.9-1.9,1.3c-0.5,0.3-1,0.7-1.4,1.1c-0.5,0.4-1,0.8-1.5,1.2c-0.5,0.4-1,0.8-1.5,1.3       c-0.5,0.4-1,0.9-1.4,1.3c-0.5,0.5-0.9,0.9-1.4,1.4c-0.5,0.5-0.9,0.9-1.3,1.4c-0.4,0.5-0.9,1-1.3,1.5c0,0-0.1,0.1-0.1,0.1       c-0.8,1-1.6,1.9-2.3,3c-0.4,0.5-0.8,1.1-1.2,1.6c-1,1.5-2,3.1-2.9,4.7c0,0.1-0.1,0.2-0.2,0.3c-0.3,0.6-0.6,1.2-0.9,1.7       c-1.4,2.8-2.6,5.8-3.6,8.9c-0.2,0.5-0.3,0.9-0.4,1.4c-0.2,0.6-0.3,1.2-0.5,1.9c-0.1,0.5-0.2,1-0.4,1.6       c-0.7,3.3-1.1,6.7-1.2,10.1l-231.8-107v-63.5l18.2,8.4l242.7,112.1L1296.8,1850.6z"/></g><g><path class="st9" d="M965.7,1870.8c-2.4,0-4.7-0.5-6.9-1.6c-5.2-2.6-8.4-7.9-8.4-13.7v-312.6c0-8.5,6.9-15.4,15.4-15.4h68.2       c8.5,0,15.4,6.9,15.4,15.4v312.3c0,5.8-3.2,11.1-8.4,13.7c-5.2,2.6-11.3,2.1-16-1.3c-7.2-5.3-15.8-8.1-24.8-8.1       c-9.1,0-17.8,2.9-25.1,8.3C972.2,1869.8,969,1870.8,965.7,1870.8z M981.1,1558.3v273c12.1-3.2,25.3-3.3,37.5-0.1v-272.9H981.1z       "/></g><g><path class="st9" d="M676.7,1974.9c-40.3,0-73-32.8-73-73c0-40.3,32.8-73,73-73c11.4,0,22.8,2.7,32.9,7.9       c23.5,11.8,38.9,35.6,40,61.9c0,0.1,0,0.1,0,0.2c0,1,0.1,2,0.1,3.1C749.7,1942.1,717,1974.9,676.7,1974.9z M676.7,1859.5       c-23.3,0-42.3,19-42.3,42.3c0,23.3,19,42.3,42.3,42.3c23.3,0,42.3-19,42.3-42.3c0-0.6,0-1.2,0-1.9c0-0.1,0-0.1,0-0.2       c-0.7-15.2-9.6-28.9-23.2-35.7C689.8,1861.1,683.4,1859.5,676.7,1859.5z"/></g><g><path class="st9" d="M1000,1974.9c-40.3,0-73-32.8-73-73c0-23,11.1-45,29.6-58.7c12.6-9.4,27.6-14.3,43.4-14.3       c15.6,0,30.4,4.9,43,14c18.8,13.7,30,35.7,30,59C1073,1942.1,1040.3,1974.9,1000,1974.9z M1000,1859.5       c-9.1,0-17.8,2.9-25.1,8.3c-10.9,8.1-17.2,20.5-17.2,34c0,23.3,19,42.3,42.3,42.3c23.3,0,42.3-19,42.3-42.3       c0-13.5-6.5-26.2-17.4-34.2C1017.6,1862.3,1009,1859.5,1000,1859.5z"/></g><g><path class="st9" d="M518.2,1238c-10.2,18.8-15.9,40.3-15.9,63.1c0,6.9,0.5,13.6,1.5,20.2c-57.1-28.8-96.3-87.9-96.3-156.1       V937.3h77.6v227.9C485.2,1194.1,498,1220.2,518.2,1238z"/></g><g><path class="st9" d="M1592,937.3v227.9c0.2,68.2-38.9,127.3-95.9,156.1c1-6.6,1.5-13.3,1.5-20.1c0-22.9-5.8-44.5-16-63.3       c0,0,0,0,0,0c20.1-17.8,32.8-43.8,32.8-72.6V937.3H1592z"/></g><g><path class="st9" d="M1696.2,952.6h-233.8c-18.5,0-33.5-15-33.5-33.5v-96.8c0-18.5,15-33.5,33.5-33.5h233.8       c34,0,63.9,20.4,76.2,52.1c0,0,0,0,0,0c3.7,9.5,5.6,19.5,5.6,29.7c0,22-8.5,42.6-23.9,58.1       C1738.6,944.1,1718.1,952.6,1696.2,952.6z M1462.4,819.5c-1.7,0-2.8,1.2-2.8,2.8v96.8c0,1.6,1.5,2.8,2.8,2.8h233.8       c13.7,0,26.5-5.3,36.1-15c9.6-9.7,15-22.6,15-36.4c0-6.4-1.2-12.7-3.5-18.6c-7.7-19.7-26.4-32.5-47.6-32.5H1462.4z        M537.6,952.6H303.8c-10.3,0-20.3-1.9-29.7-5.6c-31.6-12.3-52-42.2-52-76.2c0-21.8,8.5-42.4,23.9-57.8       c15.4-15.4,36-23.9,57.8-23.9h233.8c18.5,0,33.5,15,33.5,33.5v96.8C571.2,937.7,556.1,952.6,537.6,952.6z M303.8,819.8       c-13.6,0-26.5,5.3-36.1,14.9c-9.6,9.6-14.9,22.5-14.9,36.1c0,21.2,12.8,39.9,32.5,47.6c5.9,2.3,12.1,3.5,18.6,3.5h233.8       c1.8,0,2.8-1.3,2.8-2.5v-96.8c0-1.7-1.5-2.8-2.8-2.8H303.8z"/></g><g><path class="st9" d="M1164.3,1184H835.8c-8.5,0-15.4-6.9-15.4-15.4v-0.3c0-8.5,6.9-15.4,15.4-15.4h328.5       c8.5,0,15.4,6.9,15.4,15.4v0.3C1179.6,1177.1,1172.7,1184,1164.3,1184z M1249.5,1099.8H750.5c-27.9,0-55.2-7.5-79-21.6       c-50-29.6-79.1-84-76.1-142l34.9-671.4c7.1-134.4,118-239.6,252.6-239.6h234.9c79.7,0,155.6,38.3,203.2,102.3       c29.7,39.9,46.8,87.4,49.4,137.3l34.9,671.4c0,0,0,0,0,0.1c2.1,43-13.2,83.9-43,115.2       C1332.6,1082.6,1292.6,1099.8,1249.5,1099.8z M882.9,55.8c-118.3,0-215.8,92.5-222,210.5L626,937.7c-2.4,46.6,21,90.3,61.1,114       c19.1,11.3,41,17.3,63.4,17.3h499.1c34.5,0,66.7-13.8,90.6-38.9c23.9-25.1,36.2-58,34.5-92.5l-34.9-671.3       c-2.3-43.8-17.3-85.5-43.4-120.6c-41.8-56.3-108.6-90-178.6-90H882.9z"/></g><g><path class="st9" d="M1364.9,1449.2H635.1c-29.9,0-58.6-8.8-83.2-25.5c-7.7-5.2-15-11.2-21.6-17.8       c-22.5-22.5-36.9-51-41.7-82.3c-1.1-7.3-1.7-14.9-1.7-22.5c0-24.6,6.1-48.9,17.8-70.4c25.9-48,75.9-77.7,130.4-77.7h200.6       c1.1,0,2.2,0.1,3.3,0.3h322c1-0.2,2.1-0.3,3.3-0.3h200.6c39.6,0,76.8,15.4,104.8,43.4c6.6,6.6,12.6,13.8,17.8,21.6       c2.7,3.9,5.2,8.1,7.7,12.6c0.1,0.2,0.2,0.3,0.3,0.5c11.5,21.4,17.6,45.6,17.6,70.1c0,7.5-0.6,15-1.7,22.4       c-5.3,34.7-22.8,66.5-49.4,89.6C1435,1436.4,1400.5,1449.2,1364.9,1449.2z M635.1,1183.6c-43.2,0-82.8,23.6-103.4,61.6       c-9.2,17-14.1,36.3-14.1,55.8c0,6,0.5,12,1.4,17.8c3.8,24.9,15.2,47.4,33,65.2c5.2,5.2,11,10,17.1,14.1       c19.5,13.2,42.3,20.2,66,20.2h729.7c57.6,0,107.5-42.8,116.1-99.7c0.9-5.9,1.3-11.9,1.3-17.8c0-19.6-4.9-38.9-14.2-56       c-0.1-0.1-0.2-0.3-0.2-0.4c-1.9-3.4-3.8-6.6-5.8-9.5c-4.2-6.1-8.9-11.9-14.2-17.1c-22.2-22.2-51.7-34.4-83.1-34.4h-197.4       c-1,0.2-2.1,0.3-3.3,0.3H835.8c-1.1,0-2.2-0.1-3.3-0.3H635.1z"/></g></g></g></g></svg>